<?xml version="1.0" encoding="UTF-8" standalone="no"?><!DOCTYPE svg PUBLIC "-//W3C//DTD SVG 1.1//EN" "http://www.w3.org/Graphics/SVG/1.1/DTD/svg11.dtd"><svg width="100%" height="100%" viewBox="0 0 170 177" version="1.1" xmlns="http://www.w3.org/2000/svg" xmlns:xlink="http://www.w3.org/1999/xlink" xml:space="preserve" xmlns:serif="http://www.serif.com/" style="fill-rule:evenodd;clip-rule:evenodd;stroke-linejoin:round;stroke-miterlimit:1.41421;"><g id="logo"><g id="Shape"><path id="path-2" d="M110.156,129.274c4.379,0 7.926,-3.549 7.926,-7.925c0,-4.381 -3.547,-7.929 -7.926,-7.929c-2.121,0 -4.042,0.836 -5.465,2.194l-28.616,-18.343l26.787,20.967c-0.408,0.954 -0.634,2.005 -0.634,3.111c0,4.376 3.548,7.925 7.928,7.925Z" style="fill:#fda61e;"/><path id="path-21" serif:id="path-2" d="M110.156,129.274c4.379,0 7.926,-3.549 7.926,-7.925c0,-4.381 -3.547,-7.929 -7.926,-7.929c-2.121,0 -4.042,0.836 -5.465,2.194l-28.616,-18.343l26.787,20.967c-0.408,0.954 -0.634,2.005 -0.634,3.111c0,4.376 3.548,7.925 7.928,7.925Z" style="fill:url(#_Linear1);"/></g><g id="Shape1" serif:id="Shape"><path id="path-4" d="M84.354,116.632l-19.701,-13.98c-1.381,1.019 -2.876,1.909 -4.486,2.649c-12.83,5.885 -28.451,0.092 -34.338,-12.738c-5.889,-12.831 -0.091,-28.452 12.737,-34.339c8.349,-3.833 17.873,-2.711 25.134,2.069c0.729,0.481 1.434,0.997 2.114,1.548c0.012,0.009 0.023,0.017 0.034,0.026c0.028,0.022 0.055,0.046 0.083,0.069c0.287,0.235 0.567,0.478 0.844,0.726c0.073,0.066 0.146,0.132 0.218,0.198c0.303,0.276 0.601,0.558 0.891,0.852c-2.448,-8.968 -2.5,-18.438 -0.114,-27.625c-0.682,-0.275 -1.372,-0.529 -2.065,-0.773c-0.001,0 -0.002,0 -0.002,-0.001c-0.043,-0.015 -0.085,-0.029 -0.128,-0.044c-1.389,-0.486 -2.797,-0.917 -4.222,-1.281c-0.001,0.003 -0.002,0.006 -0.003,0.009c-10.629,-2.726 -22.155,-2.063 -32.639,2.748c-15.903,7.299 -26.173,22.617 -28.305,39.156c-0.048,0.378 -0.086,0.756 -0.126,1.135c-0.031,0.304 -0.063,0.609 -0.088,0.911c-0.036,0.376 -0.066,0.753 -0.091,1.129c-0.022,0.374 -0.04,0.744 -0.054,1.115c-0.024,0.543 -0.036,1.083 -0.045,1.628c-0.001,0.361 -0.004,0.723 0,1.086c0.005,0.342 0.013,0.682 0.023,1.025c0.013,0.413 0.034,0.827 0.057,1.241c0.025,0.387 0.05,0.773 0.078,1.159c0.044,0.518 0.095,1.035 0.153,1.552c0.034,0.288 0.073,0.576 0.109,0.859c0.061,0.465 0.129,0.93 0.205,1.393c0.039,0.236 0.074,0.476 0.114,0.71c0.118,0.66 0.249,1.321 0.393,1.981c0.051,0.219 0.105,0.434 0.155,0.653c0.121,0.517 0.251,1.031 0.39,1.541c0.055,0.211 0.112,0.42 0.172,0.628c0.195,0.68 0.402,1.36 0.629,2.034c0.044,0.13 0.094,0.264 0.14,0.394c0.198,0.577 0.408,1.152 0.629,1.723c0.075,0.189 0.15,0.379 0.225,0.569c0.279,0.687 0.564,1.368 0.875,2.048c0.337,0.732 0.691,1.447 1.057,2.153c0.124,0.238 0.259,0.465 0.384,0.701c0.255,0.464 0.505,0.928 0.774,1.384c0.159,0.271 0.326,0.535 0.491,0.802c0.249,0.405 0.498,0.81 0.758,1.206c0.184,0.276 0.374,0.552 0.562,0.828c0.255,0.37 0.511,0.741 0.777,1.105c0.201,0.278 0.408,0.55 0.614,0.824c0.266,0.348 0.536,0.693 0.81,1.034c0.217,0.27 0.44,0.538 0.663,0.803c0.275,0.33 0.56,0.654 0.846,0.977c0.23,0.261 0.464,0.519 0.698,0.775c0.291,0.314 0.589,0.618 0.889,0.927c0.245,0.249 0.486,0.498 0.734,0.743c0.304,0.298 0.619,0.586 0.931,0.881c0.254,0.234 0.503,0.472 0.76,0.701c0.324,0.29 0.657,0.567 0.989,0.85c0.257,0.217 0.511,0.437 0.77,0.651c0.364,0.294 0.735,0.577 1.106,0.858c0.355,0.27 0.707,0.539 1.066,0.799c0.483,0.351 0.966,0.696 1.461,1.03c0.322,0.215 0.648,0.416 0.975,0.624c0.315,0.2 0.628,0.407 0.95,0.601c0.348,0.214 0.704,0.417 1.062,0.618c0.301,0.175 0.602,0.353 0.91,0.52c0.369,0.203 0.744,0.398 1.117,0.59c0.298,0.151 0.596,0.308 0.897,0.458c0.388,0.191 0.776,0.374 1.168,0.552c0.296,0.137 0.589,0.27 0.886,0.399c0.404,0.179 0.811,0.35 1.22,0.518c0.287,0.118 0.574,0.231 0.862,0.34c0.423,0.168 0.852,0.329 1.28,0.482c0.272,0.095 0.549,0.187 0.822,0.282c0.448,0.15 0.898,0.3 1.351,0.441c0.25,0.076 0.501,0.148 0.754,0.22c0.482,0.142 0.965,0.279 1.45,0.406c0.202,0.051 0.404,0.097 0.607,0.148c0.54,0.132 1.078,0.265 1.62,0.379c0.061,0.013 0.12,0.025 0.182,0.037c2.7,0.562 5.445,0.905 8.212,1.021c0.117,0.004 0.242,0.014 0.363,0.017c0.582,0.02 1.165,0.025 1.749,0.025c0.174,0 0.347,0.001 0.522,0c0.563,-0.005 1.126,-0.025 1.689,-0.051c0.193,-0.009 0.387,-0.015 0.579,-0.025c0.555,-0.034 1.111,-0.075 1.667,-0.125c0.198,-0.02 0.396,-0.041 0.593,-0.06c0.557,-0.058 1.111,-0.124 1.667,-0.203c0.189,-0.025 0.382,-0.054 0.573,-0.08c0.561,-0.086 1.125,-0.179 1.687,-0.285c0.172,-0.03 0.341,-0.068 0.512,-0.101c0.582,-0.117 1.165,-0.238 1.746,-0.375c0.125,-0.031 0.249,-0.066 0.374,-0.098c0.625,-0.152 1.252,-0.313 1.873,-0.493c2.237,-0.648 4.449,-1.458 6.615,-2.45c5.487,-2.517 10.292,-5.998 14.331,-10.147Z" style="fill:#fda61e;"/><path id="path-41" serif:id="path-4" d="M84.354,116.632l-19.701,-13.98c-1.381,1.019 -2.876,1.909 -4.486,2.649c-12.83,5.885 -28.451,0.092 -34.338,-12.738c-5.889,-12.831 -0.091,-28.452 12.737,-34.339c8.349,-3.833 17.873,-2.711 25.134,2.069c0.729,0.481 1.434,0.997 2.114,1.548c0.012,0.009 0.023,0.017 0.034,0.026c0.028,0.022 0.055,0.046 0.083,0.069c0.287,0.235 0.567,0.478 0.844,0.726c0.073,0.066 0.146,0.132 0.218,0.198c0.303,0.276 0.601,0.558 0.891,0.852c-2.448,-8.968 -2.5,-18.438 -0.114,-27.625c-0.682,-0.275 -1.372,-0.529 -2.065,-0.773c-0.001,0 -0.002,0 -0.002,-0.001c-0.043,-0.015 -0.085,-0.029 -0.128,-0.044c-1.389,-0.486 -2.797,-0.917 -4.222,-1.281c-0.001,0.003 -0.002,0.006 -0.003,0.009c-10.629,-2.726 -22.155,-2.063 -32.639,2.748c-15.903,7.299 -26.173,22.617 -28.305,39.156c-0.048,0.378 -0.086,0.756 -0.126,1.135c-0.031,0.304 -0.063,0.609 -0.088,0.911c-0.036,0.376 -0.066,0.753 -0.091,1.129c-0.022,0.374 -0.04,0.744 -0.054,1.115c-0.024,0.543 -0.036,1.083 -0.045,1.628c-0.001,0.361 -0.004,0.723 0,1.086c0.005,0.342 0.013,0.682 0.023,1.025c0.013,0.413 0.034,0.827 0.057,1.241c0.025,0.387 0.05,0.773 0.078,1.159c0.044,0.518 0.095,1.035 0.153,1.552c0.034,0.288 0.073,0.576 0.109,0.859c0.061,0.465 0.129,0.93 0.205,1.393c0.039,0.236 0.074,0.476 0.114,0.71c0.118,0.66 0.249,1.321 0.393,1.981c0.051,0.219 0.105,0.434 0.155,0.653c0.121,0.517 0.251,1.031 0.39,1.541c0.055,0.211 0.112,0.42 0.172,0.628c0.195,0.68 0.402,1.36 0.629,2.034c0.044,0.13 0.094,0.264 0.14,0.394c0.198,0.577 0.408,1.152 0.629,1.723c0.075,0.189 0.15,0.379 0.225,0.569c0.279,0.687 0.564,1.368 0.875,2.048c0.337,0.732 0.691,1.447 1.057,2.153c0.124,0.238 0.259,0.465 0.384,0.701c0.255,0.464 0.505,0.928 0.774,1.384c0.159,0.271 0.326,0.535 0.491,0.802c0.249,0.405 0.498,0.81 0.758,1.206c0.184,0.276 0.374,0.552 0.562,0.828c0.255,0.37 0.511,0.741 0.777,1.105c0.201,0.278 0.408,0.55 0.614,0.824c0.266,0.348 0.536,0.693 0.81,1.034c0.217,0.27 0.44,0.538 0.663,0.803c0.275,0.33 0.56,0.654 0.846,0.977c0.23,0.261 0.464,0.519 0.698,0.775c0.291,0.314 0.589,0.618 0.889,0.927c0.245,0.249 0.486,0.498 0.734,0.743c0.304,0.298 0.619,0.586 0.931,0.881c0.254,0.234 0.503,0.472 0.76,0.701c0.324,0.29 0.657,0.567 0.989,0.85c0.257,0.217 0.511,0.437 0.77,0.651c0.364,0.294 0.735,0.577 1.106,0.858c0.355,0.27 0.707,0.539 1.066,0.799c0.483,0.351 0.966,0.696 1.461,1.03c0.322,0.215 0.648,0.416 0.975,0.624c0.315,0.2 0.628,0.407 0.95,0.601c0.348,0.214 0.704,0.417 1.062,0.618c0.301,0.175 0.602,0.353 0.91,0.52c0.369,0.203 0.744,0.398 1.117,0.59c0.298,0.151 0.596,0.308 0.897,0.458c0.388,0.191 0.776,0.374 1.168,0.552c0.296,0.137 0.589,0.27 0.886,0.399c0.404,0.179 0.811,0.35 1.22,0.518c0.287,0.118 0.574,0.231 0.862,0.34c0.423,0.168 0.852,0.329 1.28,0.482c0.272,0.095 0.549,0.187 0.822,0.282c0.448,0.15 0.898,0.3 1.351,0.441c0.25,0.076 0.501,0.148 0.754,0.22c0.482,0.142 0.965,0.279 1.45,0.406c0.202,0.051 0.404,0.097 0.607,0.148c0.54,0.132 1.078,0.265 1.62,0.379c0.061,0.013 0.12,0.025 0.182,0.037c2.7,0.562 5.445,0.905 8.212,1.021c0.117,0.004 0.242,0.014 0.363,0.017c0.582,0.02 1.165,0.025 1.749,0.025c0.174,0 0.347,0.001 0.522,0c0.563,-0.005 1.126,-0.025 1.689,-0.051c0.193,-0.009 0.387,-0.015 0.579,-0.025c0.555,-0.034 1.111,-0.075 1.667,-0.125c0.198,-0.02 0.396,-0.041 0.593,-0.06c0.557,-0.058 1.111,-0.124 1.667,-0.203c0.189,-0.025 0.382,-0.054 0.573,-0.08c0.561,-0.086 1.125,-0.179 1.687,-0.285c0.172,-0.03 0.341,-0.068 0.512,-0.101c0.582,-0.117 1.165,-0.238 1.746,-0.375c0.125,-0.031 0.249,-0.066 0.374,-0.098c0.625,-0.152 1.252,-0.313 1.873,-0.493c2.237,-0.648 4.449,-1.458 6.615,-2.45c5.487,-2.517 10.292,-5.998 14.331,-10.147Z" style="fill:url(#_Linear2);"/></g><g id="Shape2" serif:id="Shape"><path id="path-6" d="M156.722,103.958c-0.088,-0.168 -0.185,-0.331 -0.272,-0.496c-0.281,-0.524 -0.564,-1.045 -0.862,-1.555c-0.092,-0.158 -0.191,-0.309 -0.284,-0.464c-0.312,-0.52 -0.627,-1.031 -0.955,-1.538c-0.078,-0.118 -0.162,-0.236 -0.245,-0.358c-0.356,-0.533 -0.717,-1.062 -1.093,-1.579c-0.059,-0.082 -0.122,-0.163 -0.181,-0.244c-0.408,-0.553 -0.825,-1.098 -1.252,-1.631c-0.036,-0.046 -0.072,-0.089 -0.109,-0.135c-0.461,-0.569 -0.93,-1.123 -1.412,-1.668c-0.015,-0.016 -0.028,-0.031 -0.042,-0.045c-1.021,-1.147 -2.091,-2.242 -3.207,-3.281c-6.056,-5.647 -13.453,-9.701 -21.385,-11.849l-2.25,24.013c5.614,2.47 10.39,6.882 13.099,12.788c5.888,12.833 0.093,28.451 -12.739,34.339c-12.263,5.624 -27.065,0.578 -33.492,-11.079c-0.298,-0.542 -0.585,-1.09 -0.845,-1.66c-2.673,-5.825 -2.93,-12.217 -1.223,-18.018c-4.561,4.732 -9.971,8.607 -16.063,11.402c-2.637,1.209 -5.345,2.18 -8.102,2.939c0.618,4.598 1.901,9.157 3.908,13.531c0.578,1.261 1.213,2.482 1.89,3.672c0.001,0.002 0.002,0.005 0.003,0.007c0.03,0.052 0.061,0.106 0.091,0.159c0.407,0.706 0.823,1.405 1.262,2.086c0,0.002 0.001,0.003 0.002,0.005c0.004,0.006 0.009,0.012 0.013,0.018c0.353,0.547 0.719,1.083 1.092,1.612c0.003,0.004 0.005,0.008 0.008,0.013c0.076,0.109 0.156,0.216 0.234,0.324c0.376,0.524 0.761,1.04 1.156,1.547c0.067,0.086 0.134,0.173 0.201,0.26c0.003,0.004 0.007,0.008 0.01,0.012c0.401,0.507 0.808,1.006 1.226,1.494c0.007,0.009 0.013,0.015 0.02,0.024c0.015,0.016 0.031,0.033 0.046,0.05c0.538,0.624 1.095,1.229 1.662,1.823c0.006,0.005 0.011,0.011 0.016,0.016c0.329,0.345 0.662,0.683 1,1.017c0.006,0.006 0.012,0.012 0.018,0.018c0.115,0.112 0.228,0.225 0.343,0.336c0.489,0.472 0.984,0.937 1.491,1.389c0.008,0.007 0.015,0.016 0.024,0.021c0.002,0.004 0.005,0.005 0.008,0.008c0.485,0.43 0.981,0.849 1.482,1.26c0.001,0.001 0.001,0.001 0.002,0.001c0.035,0.03 0.071,0.058 0.107,0.087c1.147,0.935 2.331,1.822 3.553,2.651c11.97,8.116 27.309,11.016 41.586,7.055c0.245,-0.07 0.489,-0.148 0.734,-0.217c0.466,-0.139 0.931,-0.282 1.395,-0.432c0.281,-0.095 0.564,-0.191 0.845,-0.291c0.458,-0.156 0.915,-0.327 1.372,-0.504c0.24,-0.089 0.48,-0.18 0.72,-0.275c0.688,-0.278 1.378,-0.569 2.061,-0.883c24.401,-11.196 35.559,-41.269 24.362,-65.671c-0.325,-0.713 -0.671,-1.413 -1.029,-2.104Z" style="fill:#fda61e;"/><path id="path-61" serif:id="path-6" d="M156.722,103.958c-0.088,-0.168 -0.185,-0.331 -0.272,-0.496c-0.281,-0.524 -0.564,-1.045 -0.862,-1.555c-0.092,-0.158 -0.191,-0.309 -0.284,-0.464c-0.312,-0.52 -0.627,-1.031 -0.955,-1.538c-0.078,-0.118 -0.162,-0.236 -0.245,-0.358c-0.356,-0.533 -0.717,-1.062 -1.093,-1.579c-0.059,-0.082 -0.122,-0.163 -0.181,-0.244c-0.408,-0.553 -0.825,-1.098 -1.252,-1.631c-0.036,-0.046 -0.072,-0.089 -0.109,-0.135c-0.461,-0.569 -0.93,-1.123 -1.412,-1.668c-0.015,-0.016 -0.028,-0.031 -0.042,-0.045c-1.021,-1.147 -2.091,-2.242 -3.207,-3.281c-6.056,-5.647 -13.453,-9.701 -21.385,-11.849l-2.25,24.013c5.614,2.47 10.39,6.882 13.099,12.788c5.888,12.833 0.093,28.451 -12.739,34.339c-12.263,5.624 -27.065,0.578 -33.492,-11.079c-0.298,-0.542 -0.585,-1.09 -0.845,-1.66c-2.673,-5.825 -2.93,-12.217 -1.223,-18.018c-4.561,4.732 -9.971,8.607 -16.063,11.402c-2.637,1.209 -5.345,2.18 -8.102,2.939c0.618,4.598 1.901,9.157 3.908,13.531c0.578,1.261 1.213,2.482 1.89,3.672c0.001,0.002 0.002,0.005 0.003,0.007c0.03,0.052 0.061,0.106 0.091,0.159c0.407,0.706 0.823,1.405 1.262,2.086c0,0.002 0.001,0.003 0.002,0.005c0.004,0.006 0.009,0.012 0.013,0.018c0.353,0.547 0.719,1.083 1.092,1.612c0.003,0.004 0.005,0.008 0.008,0.013c0.076,0.109 0.156,0.216 0.234,0.324c0.376,0.524 0.761,1.04 1.156,1.547c0.067,0.086 0.134,0.173 0.201,0.26c0.003,0.004 0.007,0.008 0.01,0.012c0.401,0.507 0.808,1.006 1.226,1.494c0.007,0.009 0.013,0.015 0.02,0.024c0.015,0.016 0.031,0.033 0.046,0.05c0.538,0.624 1.095,1.229 1.662,1.823c0.006,0.005 0.011,0.011 0.016,0.016c0.329,0.345 0.662,0.683 1,1.017c0.006,0.006 0.012,0.012 0.018,0.018c0.115,0.112 0.228,0.225 0.343,0.336c0.489,0.472 0.984,0.937 1.491,1.389c0.008,0.007 0.015,0.016 0.024,0.021c0.002,0.004 0.005,0.005 0.008,0.008c0.485,0.43 0.981,0.849 1.482,1.26c0.001,0.001 0.001,0.001 0.002,0.001c0.035,0.03 0.071,0.058 0.107,0.087c1.147,0.935 2.331,1.822 3.553,2.651c11.97,8.116 27.309,11.016 41.586,7.055c0.245,-0.07 0.489,-0.148 0.734,-0.217c0.466,-0.139 0.931,-0.282 1.395,-0.432c0.281,-0.095 0.564,-0.191 0.845,-0.291c0.458,-0.156 0.915,-0.327 1.372,-0.504c0.24,-0.089 0.48,-0.18 0.72,-0.275c0.688,-0.278 1.378,-0.569 2.061,-0.883c24.401,-11.196 35.559,-41.269 24.362,-65.671c-0.325,-0.713 -0.671,-1.413 -1.029,-2.104Z" style="fill:url(#_Linear3);"/></g><g id="Shape3" serif:id="Shape"><path id="path-7" d="M162.81,73.722c7.549,-13.468 8.954,-30.272 2.19,-45.015c-6.849,-14.928 -20.767,-24.887 -36.126,-27.815c-2.4,-0.454 -4.833,-0.742 -7.282,-0.849c-0.048,0 -0.099,-0.003 -0.148,-0.007c-0.544,-0.02 -1.09,-0.031 -1.634,-0.036c-0.151,0 -0.299,0 -0.449,0c-0.524,0 -1.047,0.005 -1.57,0.02c-0.107,0.006 -0.209,0.01 -0.314,0.016c-0.957,0.037 -1.914,0.107 -2.87,0.202c-0.237,0.021 -0.472,0.041 -0.709,0.069c-0.4,0.043 -0.798,0.098 -1.197,0.154c-0.333,0.048 -0.666,0.095 -0.999,0.148c-0.363,0.06 -0.728,0.122 -1.09,0.187c-0.403,0.072 -0.807,0.156 -1.212,0.242c-0.299,0.062 -0.597,0.119 -0.896,0.186c-0.679,0.157 -1.356,0.329 -2.03,0.517c-0.224,0.062 -0.448,0.131 -0.672,0.198c-0.499,0.147 -0.999,0.297 -1.494,0.462c-0.255,0.084 -0.507,0.17 -0.763,0.255c-0.488,0.172 -0.978,0.353 -1.464,0.541c-0.223,0.086 -0.447,0.168 -0.67,0.257c-0.697,0.28 -1.393,0.574 -2.087,0.893c-0.691,0.317 -1.371,0.656 -2.042,1.002c-0.105,0.055 -0.216,0.109 -0.322,0.164c-0.636,0.338 -1.258,0.686 -1.873,1.047c-0.127,0.074 -0.25,0.147 -0.375,0.223c-0.609,0.364 -1.209,0.741 -1.799,1.132c-0.099,0.065 -0.194,0.133 -0.291,0.198c-0.552,0.369 -1.095,0.75 -1.627,1.141c-0.08,0.059 -0.164,0.116 -0.246,0.177c-0.546,0.41 -1.08,0.831 -1.609,1.259c-0.143,0.112 -0.285,0.229 -0.424,0.348c-0.499,0.412 -0.984,0.834 -1.464,1.266c-0.155,0.141 -0.309,0.282 -0.462,0.424c-0.443,0.411 -0.882,0.828 -1.311,1.256c-0.159,0.157 -0.316,0.321 -0.474,0.482c-0.344,0.354 -0.681,0.712 -1.015,1.072c-0.167,0.18 -0.334,0.36 -0.496,0.544c-0.377,0.42 -0.748,0.854 -1.107,1.288c-0.196,0.236 -0.385,0.47 -0.574,0.705c-0.335,0.417 -0.664,0.839 -0.985,1.267c-0.202,0.266 -0.397,0.543 -0.593,0.815c-0.187,0.254 -0.366,0.511 -0.546,0.772c-0.323,0.466 -0.639,0.938 -0.944,1.415c-0.134,0.212 -0.272,0.421 -0.404,0.635c-0.407,0.662 -0.803,1.327 -1.183,2.001c-0.033,0.059 -0.068,0.12 -0.102,0.182c-0.213,0.387 -0.423,0.773 -0.626,1.164c-0.038,0.076 -0.076,0.15 -0.114,0.225c-0.374,0.724 -0.73,1.461 -1.072,2.203c-0.034,0.078 -0.07,0.156 -0.104,0.236c-1.31,2.91 -2.351,5.937 -3.101,9.039c-1.938,8.012 -1.953,16.506 0.273,24.664l22.007,-10.097c-1.292,-10.875 4.481,-22.007 14.86,-26.773c12.831,-5.886 28.455,-0.091 34.341,12.739c4.396,9.58 2.277,20.713 -4.419,28.19c-0.225,0.253 -0.459,0.499 -0.696,0.742c-0.06,0.063 -0.118,0.127 -0.18,0.189c-0.137,0.139 -0.28,0.271 -0.421,0.406c-0.108,0.104 -0.213,0.209 -0.323,0.312c-0.061,0.057 -0.12,0.115 -0.182,0.172c-0.143,0.131 -0.292,0.257 -0.439,0.383c-0.117,0.102 -0.231,0.205 -0.35,0.304c-0.062,0.054 -0.123,0.109 -0.186,0.16c-0.25,0.209 -0.51,0.407 -0.771,0.606c-0.083,0.064 -0.163,0.131 -0.248,0.194c-0.066,0.049 -0.137,0.094 -0.203,0.143c-0.191,0.136 -0.382,0.272 -0.576,0.405c-0.097,0.068 -0.192,0.138 -0.292,0.204c-0.257,0.172 -0.523,0.334 -0.788,0.496c-0.108,0.066 -0.211,0.137 -0.319,0.201c-0.278,0.165 -0.564,0.321 -0.85,0.475c-0.102,0.056 -0.202,0.116 -0.304,0.17c-0.391,0.205 -0.789,0.401 -1.194,0.586c-1.543,0.707 -3.124,1.241 -4.726,1.619c1.816,0.475 3.625,1.032 5.411,1.696c7.294,2.703 13.76,6.806 19.119,12.005c0.589,-0.471 1.163,-0.959 1.727,-1.456l0,-0.001c0.168,-0.146 0.328,-0.299 0.492,-0.449c0.007,-0.007 0.015,-0.013 0.021,-0.018c0.387,-0.352 0.771,-0.707 1.147,-1.07c0.002,-0.003 0.005,-0.005 0.008,-0.007c0.372,-0.36 0.731,-0.733 1.091,-1.103c0.166,-0.172 0.336,-0.34 0.5,-0.515c0.005,-0.006 0.011,-0.013 0.017,-0.018c0.175,-0.187 0.349,-0.375 0.522,-0.565c0,0 0.001,-0.001 0.002,-0.002c0.342,-0.375 0.676,-0.755 1.006,-1.141c0.003,-0.003 0.005,-0.005 0.007,-0.007c0.636,-0.743 1.254,-1.5 1.844,-2.277c0.003,-0.005 0.006,-0.009 0.01,-0.014c0.1,-0.132 0.192,-0.27 0.291,-0.402c0.797,-1.072 1.556,-2.171 2.264,-3.3c0.014,-0.021 0.028,-0.042 0.042,-0.063l0,0c0.045,-0.072 0.086,-0.144 0.13,-0.216c0.008,-0.014 0.017,-0.027 0.025,-0.041c0.18,-0.292 0.349,-0.589 0.523,-0.885c0.186,-0.316 0.381,-0.627 0.56,-0.947c0.002,0.001 0,0.001 -0.002,-0.001Z" style="fill:#fda61e;"/><path id="path-71" serif:id="path-7" d="M162.81,73.722c7.549,-13.468 8.954,-30.272 2.19,-45.015c-6.849,-14.928 -20.767,-24.887 -36.126,-27.815c-2.4,-0.454 -4.833,-0.742 -7.282,-0.849c-0.048,0 -0.099,-0.003 -0.148,-0.007c-0.544,-0.02 -1.09,-0.031 -1.634,-0.036c-0.151,0 -0.299,0 -0.449,0c-0.524,0 -1.047,0.005 -1.57,0.02c-0.107,0.006 -0.209,0.01 -0.314,0.016c-0.957,0.037 -1.914,0.107 -2.87,0.202c-0.237,0.021 -0.472,0.041 -0.709,0.069c-0.4,0.043 -0.798,0.098 -1.197,0.154c-0.333,0.048 -0.666,0.095 -0.999,0.148c-0.363,0.06 -0.728,0.122 -1.09,0.187c-0.403,0.072 -0.807,0.156 -1.212,0.242c-0.299,0.062 -0.597,0.119 -0.896,0.186c-0.679,0.157 -1.356,0.329 -2.03,0.517c-0.224,0.062 -0.448,0.131 -0.672,0.198c-0.499,0.147 -0.999,0.297 -1.494,0.462c-0.255,0.084 -0.507,0.17 -0.763,0.255c-0.488,0.172 -0.978,0.353 -1.464,0.541c-0.223,0.086 -0.447,0.168 -0.67,0.257c-0.697,0.28 -1.393,0.574 -2.087,0.893c-0.691,0.317 -1.371,0.656 -2.042,1.002c-0.105,0.055 -0.216,0.109 -0.322,0.164c-0.636,0.338 -1.258,0.686 -1.873,1.047c-0.127,0.074 -0.25,0.147 -0.375,0.223c-0.609,0.364 -1.209,0.741 -1.799,1.132c-0.099,0.065 -0.194,0.133 -0.291,0.198c-0.552,0.369 -1.095,0.75 -1.627,1.141c-0.08,0.059 -0.164,0.116 -0.246,0.177c-0.546,0.41 -1.08,0.831 -1.609,1.259c-0.143,0.112 -0.285,0.229 -0.424,0.348c-0.499,0.412 -0.984,0.834 -1.464,1.266c-0.155,0.141 -0.309,0.282 -0.462,0.424c-0.443,0.411 -0.882,0.828 -1.311,1.256c-0.159,0.157 -0.316,0.321 -0.474,0.482c-0.344,0.354 -0.681,0.712 -1.015,1.072c-0.167,0.18 -0.334,0.36 -0.496,0.544c-0.377,0.42 -0.748,0.854 -1.107,1.288c-0.196,0.236 -0.385,0.47 -0.574,0.705c-0.335,0.417 -0.664,0.839 -0.985,1.267c-0.202,0.266 -0.397,0.543 -0.593,0.815c-0.187,0.254 -0.366,0.511 -0.546,0.772c-0.323,0.466 -0.639,0.938 -0.944,1.415c-0.134,0.212 -0.272,0.421 -0.404,0.635c-0.407,0.662 -0.803,1.327 -1.183,2.001c-0.033,0.059 -0.068,0.12 -0.102,0.182c-0.213,0.387 -0.423,0.773 -0.626,1.164c-0.038,0.076 -0.076,0.15 -0.114,0.225c-0.374,0.724 -0.73,1.461 -1.072,2.203c-0.034,0.078 -0.07,0.156 -0.104,0.236c-1.31,2.91 -2.351,5.937 -3.101,9.039c-1.938,8.012 -1.953,16.506 0.273,24.664l22.007,-10.097c-1.292,-10.875 4.481,-22.007 14.86,-26.773c12.831,-5.886 28.455,-0.091 34.341,12.739c4.396,9.58 2.277,20.713 -4.419,28.19c-0.225,0.253 -0.459,0.499 -0.696,0.742c-0.06,0.063 -0.118,0.127 -0.18,0.189c-0.137,0.139 -0.28,0.271 -0.421,0.406c-0.108,0.104 -0.213,0.209 -0.323,0.312c-0.061,0.057 -0.12,0.115 -0.182,0.172c-0.143,0.131 -0.292,0.257 -0.439,0.383c-0.117,0.102 -0.231,0.205 -0.35,0.304c-0.062,0.054 -0.123,0.109 -0.186,0.16c-0.25,0.209 -0.51,0.407 -0.771,0.606c-0.083,0.064 -0.163,0.131 -0.248,0.194c-0.066,0.049 -0.137,0.094 -0.203,0.143c-0.191,0.136 -0.382,0.272 -0.576,0.405c-0.097,0.068 -0.192,0.138 -0.292,0.204c-0.257,0.172 -0.523,0.334 -0.788,0.496c-0.108,0.066 -0.211,0.137 -0.319,0.201c-0.278,0.165 -0.564,0.321 -0.85,0.475c-0.102,0.056 -0.202,0.116 -0.304,0.17c-0.391,0.205 -0.789,0.401 -1.194,0.586c-1.543,0.707 -3.124,1.241 -4.726,1.619c1.816,0.475 3.625,1.032 5.411,1.696c7.294,2.703 13.76,6.806 19.119,12.005c0.589,-0.471 1.163,-0.959 1.727,-1.456l0,-0.001c0.168,-0.146 0.328,-0.299 0.492,-0.449c0.007,-0.007 0.015,-0.013 0.021,-0.018c0.387,-0.352 0.771,-0.707 1.147,-1.07c0.002,-0.003 0.005,-0.005 0.008,-0.007c0.372,-0.36 0.731,-0.733 1.091,-1.103c0.166,-0.172 0.336,-0.34 0.5,-0.515c0.005,-0.006 0.011,-0.013 0.017,-0.018c0.175,-0.187 0.349,-0.375 0.522,-0.565c0,0 0.001,-0.001 0.002,-0.002c0.342,-0.375 0.676,-0.755 1.006,-1.141c0.003,-0.003 0.005,-0.005 0.007,-0.007c0.636,-0.743 1.254,-1.5 1.844,-2.277c0.003,-0.005 0.006,-0.009 0.01,-0.014c0.1,-0.132 0.192,-0.27 0.291,-0.402c0.797,-1.072 1.556,-2.171 2.264,-3.3c0.014,-0.021 0.028,-0.042 0.042,-0.063l0,0c0.045,-0.072 0.086,-0.144 0.13,-0.216c0.008,-0.014 0.017,-0.027 0.025,-0.041c0.18,-0.292 0.349,-0.589 0.523,-0.885c0.186,-0.316 0.381,-0.627 0.56,-0.947c0.002,0.001 0,0.001 -0.002,-0.001Z" style="fill:url(#_Linear4);"/></g><g id="Shape4" serif:id="Shape"><path id="path-8" d="M118.719,65.359c0.097,-0.025 0.196,-0.05 0.292,-0.078c0.173,-0.049 0.342,-0.111 0.511,-0.173c0.1,-0.037 0.204,-0.072 0.302,-0.109c0.159,-0.066 0.317,-0.138 0.471,-0.21c0.103,-0.05 0.205,-0.098 0.308,-0.15c0.145,-0.076 0.288,-0.158 0.432,-0.242c0.102,-0.061 0.204,-0.12 0.305,-0.184c0.131,-0.088 0.264,-0.179 0.391,-0.272c0.102,-0.074 0.202,-0.146 0.3,-0.223c0.121,-0.095 0.24,-0.195 0.355,-0.295c0.097,-0.086 0.193,-0.172 0.287,-0.264c0.11,-0.103 0.213,-0.207 0.318,-0.315c0.093,-0.099 0.183,-0.198 0.271,-0.298c0.095,-0.109 0.189,-0.219 0.278,-0.332c0.087,-0.11 0.17,-0.224 0.252,-0.337c0.082,-0.113 0.164,-0.229 0.24,-0.346c0.08,-0.123 0.155,-0.249 0.226,-0.374c0.07,-0.119 0.14,-0.235 0.203,-0.354c0.07,-0.135 0.134,-0.276 0.198,-0.415c0.054,-0.119 0.113,-0.237 0.162,-0.359c0.063,-0.148 0.111,-0.3 0.165,-0.454c0.042,-0.118 0.088,-0.235 0.125,-0.358c0.049,-0.164 0.088,-0.332 0.128,-0.501c0.028,-0.115 0.061,-0.228 0.084,-0.346c0.037,-0.189 0.062,-0.384 0.088,-0.583c0.013,-0.097 0.034,-0.193 0.043,-0.292c0.03,-0.297 0.045,-0.597 0.045,-0.901c0,-0.625 -0.063,-1.238 -0.184,-1.829c-0.003,-0.016 -0.009,-0.032 -0.013,-0.049c-0.058,-0.278 -0.127,-0.552 -0.209,-0.819c-0.417,-1.336 -1.14,-2.537 -2.081,-3.531c-0.057,-0.058 -0.108,-0.125 -0.168,-0.183c-0.124,-0.124 -0.257,-0.235 -0.387,-0.352c-0.087,-0.076 -0.166,-0.158 -0.256,-0.232c-0.085,-0.072 -0.179,-0.134 -0.266,-0.2c-0.374,-0.288 -0.764,-0.551 -1.179,-0.777c-0.08,-0.043 -0.168,-0.078 -0.249,-0.119c-0.441,-0.223 -0.897,-0.419 -1.377,-0.567c-0.268,-0.083 -0.54,-0.153 -0.819,-0.21c-0.017,-0.004 -0.034,-0.009 -0.05,-0.013c-0.135,-0.028 -0.277,-0.041 -0.413,-0.062c-0.464,-0.074 -0.933,-0.122 -1.415,-0.122c-0.312,0 -0.621,0.016 -0.926,0.046c-0.285,0.029 -0.567,0.071 -0.844,0.126c-0.045,0.009 -0.088,0.023 -0.133,0.033c-0.23,0.049 -0.458,0.102 -0.682,0.169c-0.097,0.028 -0.19,0.066 -0.285,0.099c-0.167,0.056 -0.336,0.108 -0.499,0.174c-0.124,0.05 -0.243,0.11 -0.363,0.165c-0.129,0.059 -0.26,0.111 -0.384,0.176c-0.148,0.076 -0.289,0.162 -0.432,0.245c-0.093,0.054 -0.189,0.102 -0.279,0.159c-0.168,0.106 -0.327,0.223 -0.487,0.339c-0.059,0.043 -0.122,0.08 -0.179,0.125c-0.18,0.137 -0.351,0.285 -0.52,0.435c-0.033,0.029 -0.069,0.055 -0.102,0.085c-0.188,0.172 -0.367,0.353 -0.539,0.54c-0.011,0.011 -0.022,0.021 -0.033,0.032c-1.461,1.597 -2.356,3.719 -2.373,6.05c-8.664,5.661 -34.269,18.082 -44.042,22.164l-0.001,-0.001c-0.177,-0.203 -0.364,-0.397 -0.561,-0.581c-0.015,-0.014 -0.029,-0.026 -0.043,-0.039c-0.182,-0.169 -0.372,-0.329 -0.569,-0.48c-0.03,-0.023 -0.06,-0.045 -0.09,-0.067c-0.183,-0.136 -0.372,-0.265 -0.567,-0.385c-0.046,-0.028 -0.092,-0.056 -0.138,-0.084c-0.183,-0.107 -0.37,-0.206 -0.561,-0.298c-0.062,-0.03 -0.122,-0.06 -0.184,-0.089c-0.182,-0.082 -0.367,-0.156 -0.555,-0.224c-0.074,-0.027 -0.148,-0.056 -0.224,-0.082c-0.183,-0.06 -0.369,-0.11 -0.557,-0.157c-0.083,-0.02 -0.165,-0.046 -0.25,-0.065c-0.193,-0.041 -0.391,-0.071 -0.59,-0.098c-0.08,-0.012 -0.159,-0.028 -0.241,-0.037c-0.279,-0.03 -0.563,-0.047 -0.851,-0.047c-4.378,0 -7.928,3.549 -7.928,7.928c0,4.379 3.55,7.928 7.928,7.928c4.379,0 7.928,-3.549 7.928,-7.928c0,-0.116 -0.012,-0.23 -0.017,-0.344c9.39,-5.981 33.752,-17.67 44.022,-21.387c0.084,0.103 0.162,0.208 0.249,0.309c0.074,0.086 0.153,0.167 0.226,0.248c0.213,0.23 0.435,0.45 0.668,0.658c0.05,0.044 0.094,0.089 0.144,0.131c0.128,0.109 0.262,0.21 0.396,0.314c0.071,0.052 0.141,0.107 0.212,0.16c0.136,0.096 0.277,0.189 0.418,0.278c0.074,0.047 0.148,0.092 0.223,0.135c0.148,0.088 0.298,0.176 0.453,0.255c0.055,0.03 0.112,0.054 0.17,0.082c0.365,0.181 0.743,0.339 1.134,0.47c0.021,0.007 0.042,0.012 0.063,0.019l-1.793,38.643l5.407,-38.235c0.012,-0.003 0.025,-0.003 0.038,-0.003c0.204,-0.021 0.405,-0.057 0.604,-0.086c0.09,-0.016 0.179,-0.025 0.267,-0.043c0.192,-0.035 0.375,-0.084 0.558,-0.13Z" style="fill:#fda61e;"/><path id="path-81" serif:id="path-8" d="M118.719,65.359c0.097,-0.025 0.196,-0.05 0.292,-0.078c0.173,-0.049 0.342,-0.111 0.511,-0.173c0.1,-0.037 0.204,-0.072 0.302,-0.109c0.159,-0.066 0.317,-0.138 0.471,-0.21c0.103,-0.05 0.205,-0.098 0.308,-0.15c0.145,-0.076 0.288,-0.158 0.432,-0.242c0.102,-0.061 0.204,-0.12 0.305,-0.184c0.131,-0.088 0.264,-0.179 0.391,-0.272c0.102,-0.074 0.202,-0.146 0.3,-0.223c0.121,-0.095 0.24,-0.195 0.355,-0.295c0.097,-0.086 0.193,-0.172 0.287,-0.264c0.11,-0.103 0.213,-0.207 0.318,-0.315c0.093,-0.099 0.183,-0.198 0.271,-0.298c0.095,-0.109 0.189,-0.219 0.278,-0.332c0.087,-0.11 0.17,-0.224 0.252,-0.337c0.082,-0.113 0.164,-0.229 0.24,-0.346c0.08,-0.123 0.155,-0.249 0.226,-0.374c0.07,-0.119 0.14,-0.235 0.203,-0.354c0.07,-0.135 0.134,-0.276 0.198,-0.415c0.054,-0.119 0.113,-0.237 0.162,-0.359c0.063,-0.148 0.111,-0.3 0.165,-0.454c0.042,-0.118 0.088,-0.235 0.125,-0.358c0.049,-0.164 0.088,-0.332 0.128,-0.501c0.028,-0.115 0.061,-0.228 0.084,-0.346c0.037,-0.189 0.062,-0.384 0.088,-0.583c0.013,-0.097 0.034,-0.193 0.043,-0.292c0.03,-0.297 0.045,-0.597 0.045,-0.901c0,-0.625 -0.063,-1.238 -0.184,-1.829c-0.003,-0.016 -0.009,-0.032 -0.013,-0.049c-0.058,-0.278 -0.127,-0.552 -0.209,-0.819c-0.417,-1.336 -1.14,-2.537 -2.081,-3.531c-0.057,-0.058 -0.108,-0.125 -0.168,-0.183c-0.124,-0.124 -0.257,-0.235 -0.387,-0.352c-0.087,-0.076 -0.166,-0.158 -0.256,-0.232c-0.085,-0.072 -0.179,-0.134 -0.266,-0.2c-0.374,-0.288 -0.764,-0.551 -1.179,-0.777c-0.08,-0.043 -0.168,-0.078 -0.249,-0.119c-0.441,-0.223 -0.897,-0.419 -1.377,-0.567c-0.268,-0.083 -0.54,-0.153 -0.819,-0.21c-0.017,-0.004 -0.034,-0.009 -0.05,-0.013c-0.135,-0.028 -0.277,-0.041 -0.413,-0.062c-0.464,-0.074 -0.933,-0.122 -1.415,-0.122c-0.312,0 -0.621,0.016 -0.926,0.046c-0.285,0.029 -0.567,0.071 -0.844,0.126c-0.045,0.009 -0.088,0.023 -0.133,0.033c-0.23,0.049 -0.458,0.102 -0.682,0.169c-0.097,0.028 -0.19,0.066 -0.285,0.099c-0.167,0.056 -0.336,0.108 -0.499,0.174c-0.124,0.05 -0.243,0.11 -0.363,0.165c-0.129,0.059 -0.26,0.111 -0.384,0.176c-0.148,0.076 -0.289,0.162 -0.432,0.245c-0.093,0.054 -0.189,0.102 -0.279,0.159c-0.168,0.106 -0.327,0.223 -0.487,0.339c-0.059,0.043 -0.122,0.08 -0.179,0.125c-0.18,0.137 -0.351,0.285 -0.52,0.435c-0.033,0.029 -0.069,0.055 -0.102,0.085c-0.188,0.172 -0.367,0.353 -0.539,0.54c-0.011,0.011 -0.022,0.021 -0.033,0.032c-1.461,1.597 -2.356,3.719 -2.373,6.05c-8.664,5.661 -34.269,18.082 -44.042,22.164l-0.001,-0.001c-0.177,-0.203 -0.364,-0.397 -0.561,-0.581c-0.015,-0.014 -0.029,-0.026 -0.043,-0.039c-0.182,-0.169 -0.372,-0.329 -0.569,-0.48c-0.03,-0.023 -0.06,-0.045 -0.09,-0.067c-0.183,-0.136 -0.372,-0.265 -0.567,-0.385c-0.046,-0.028 -0.092,-0.056 -0.138,-0.084c-0.183,-0.107 -0.37,-0.206 -0.561,-0.298c-0.062,-0.03 -0.122,-0.06 -0.184,-0.089c-0.182,-0.082 -0.367,-0.156 -0.555,-0.224c-0.074,-0.027 -0.148,-0.056 -0.224,-0.082c-0.183,-0.06 -0.369,-0.11 -0.557,-0.157c-0.083,-0.02 -0.165,-0.046 -0.25,-0.065c-0.193,-0.041 -0.391,-0.071 -0.59,-0.098c-0.08,-0.012 -0.159,-0.028 -0.241,-0.037c-0.279,-0.03 -0.563,-0.047 -0.851,-0.047c-4.378,0 -7.928,3.549 -7.928,7.928c0,4.379 3.55,7.928 7.928,7.928c4.379,0 7.928,-3.549 7.928,-7.928c0,-0.116 -0.012,-0.23 -0.017,-0.344c9.39,-5.981 33.752,-17.67 44.022,-21.387c0.084,0.103 0.162,0.208 0.249,0.309c0.074,0.086 0.153,0.167 0.226,0.248c0.213,0.23 0.435,0.45 0.668,0.658c0.05,0.044 0.094,0.089 0.144,0.131c0.128,0.109 0.262,0.21 0.396,0.314c0.071,0.052 0.141,0.107 0.212,0.16c0.136,0.096 0.277,0.189 0.418,0.278c0.074,0.047 0.148,0.092 0.223,0.135c0.148,0.088 0.298,0.176 0.453,0.255c0.055,0.03 0.112,0.054 0.17,0.082c0.365,0.181 0.743,0.339 1.134,0.47c0.021,0.007 0.042,0.012 0.063,0.019l-1.793,38.643l5.407,-38.235c0.012,-0.003 0.025,-0.003 0.038,-0.003c0.204,-0.021 0.405,-0.057 0.604,-0.086c0.09,-0.016 0.179,-0.025 0.267,-0.043c0.192,-0.035 0.375,-0.084 0.558,-0.13Z" style="fill:url(#_Linear5);"/></g></g><defs><linearGradient id="_Linear1" x1="0" y1="0" x2="1" y2="0" gradientUnits="userSpaceOnUse" gradientTransform="matrix(1.95963e-15,32.0032,-32.0032,1.95963e-15,97.0785,97.2713)"><stop offset="0" style="stop-color:#fad961;stop-opacity:1"/><stop offset="1" style="stop-color:#f76b1c;stop-opacity:1"/></linearGradient><linearGradient id="_Linear2" x1="0" y1="0" x2="1" y2="0" gradientUnits="userSpaceOnUse" gradientTransform="matrix(6.04526e-15,-98.7265,98.7265,6.04526e-15,42.1772,131.125)"><stop offset="0" style="stop-color:#fad961;stop-opacity:1"/><stop offset="1" style="stop-color:#f76b1c;stop-opacity:1"/></linearGradient><linearGradient id="_Linear3" x1="0" y1="0" x2="1" y2="0" gradientUnits="userSpaceOnUse" gradientTransform="matrix(-98.3045,1.20388e-14,-1.20388e-14,-98.3045,162.113,127.603)"><stop offset="0" style="stop-color:#fad961;stop-opacity:1"/><stop offset="1" style="stop-color:#f76b1c;stop-opacity:1"/></linearGradient><linearGradient id="_Linear4" x1="0" y1="0" x2="1" y2="0" gradientUnits="userSpaceOnUse" gradientTransform="matrix(5.40193e-15,88.2203,-88.2203,5.40193e-15,119.984,0)"><stop offset="0" style="stop-color:#fad961;stop-opacity:1"/><stop offset="1" style="stop-color:#f76b1c;stop-opacity:1"/></linearGradient><linearGradient id="_Linear5" x1="0" y1="0" x2="1" y2="0" gradientUnits="userSpaceOnUse" gradientTransform="matrix(3.449e-15,56.3265,-56.3265,3.449e-15,87.4597,47.529)"><stop offset="0" style="stop-color:#fad961;stop-opacity:1"/><stop offset="1" style="stop-color:#f76b1c;stop-opacity:1"/></linearGradient></defs></svg>